<mxfile host="app.diagrams.net" modified="2024-03-12T04:45:18.034Z" agent="Mozilla/5.0 (Windows NT 10.0; Win64; x64) AppleWebKit/537.36 (KHTML, like Gecko) Chrome/122.0.0.0 Safari/537.36" etag="RE2mjBERFES3Iw4rZDj1" version="24.0.5" type="github">
  <diagram name="Trang-1" id="ghrP821aY5biAVzx7xRe">
    <mxGraphModel dx="1707" dy="521" grid="1" gridSize="10" guides="1" tooltips="1" connect="1" arrows="1" fold="1" page="1" pageScale="1" pageWidth="827" pageHeight="1169" math="0" shadow="0">
      <root>
        <mxCell id="0" />
        <mxCell id="1" parent="0" />
        <mxCell id="k9Ez34xanpNrjzAvwohH-41" value="Client" style="text;html=1;align=center;verticalAlign=middle;resizable=0;points=[];autosize=1;strokeColor=none;fillColor=none;" vertex="1" parent="1">
          <mxGeometry x="-179" y="25" width="50" height="30" as="geometry" />
        </mxCell>
        <mxCell id="k9Ez34xanpNrjzAvwohH-43" value="TradingOpenApi" style="text;html=1;align=center;verticalAlign=middle;resizable=0;points=[];autosize=1;strokeColor=none;fillColor=none;" vertex="1" parent="1">
          <mxGeometry x="310" y="25" width="110" height="30" as="geometry" />
        </mxCell>
        <mxCell id="k9Ez34xanpNrjzAvwohH-44" value="RedisDB" style="text;html=1;align=center;verticalAlign=middle;resizable=0;points=[];autosize=1;strokeColor=none;fillColor=none;" vertex="1" parent="1">
          <mxGeometry x="740" y="18" width="70" height="30" as="geometry" />
        </mxCell>
        <mxCell id="k9Ez34xanpNrjzAvwohH-45" value="OracleDB" style="text;html=1;align=center;verticalAlign=middle;resizable=0;points=[];autosize=1;strokeColor=none;fillColor=none;" vertex="1" parent="1">
          <mxGeometry x="970" y="18" width="80" height="30" as="geometry" />
        </mxCell>
        <mxCell id="k9Ez34xanpNrjzAvwohH-46" value="Nhập thông tin cổ phiếu mua/bán và click &quot;Xác nhân&quot;" style="rounded=0;whiteSpace=wrap;html=1;" vertex="1" parent="1">
          <mxGeometry x="-259" y="267" width="165" height="74" as="geometry" />
        </mxCell>
        <mxCell id="k9Ez34xanpNrjzAvwohH-49" value="&lt;br&gt;initVerifyTransaction: nhận data payload⇒ gọi đến genTransaction⇒ transactionId được tạo = custId+module+ time now+ randomUtils.uidLight(4)⇒ transactionID lưu ở redis&amp;nbsp;&lt;br&gt;&lt;div&gt;Khởi tạo xong=&amp;gt; gọi&amp;nbsp;&lt;span style=&quot;background-color: initial;&quot;&gt;transactionHelper.create để lưu ở redis&lt;/span&gt;&lt;/div&gt;" style="whiteSpace=wrap;html=1;fillStyle=auto;gradientColor=none;fillColor=default;strokeColor=default;" vertex="1" parent="1">
          <mxGeometry x="410" y="180" width="240" height="160" as="geometry" />
        </mxCell>
        <mxCell id="k9Ez34xanpNrjzAvwohH-50" value="truy vấn" style="rounded=0;whiteSpace=wrap;html=1;" vertex="1" parent="1">
          <mxGeometry x="950" y="100" width="120" height="60" as="geometry" />
        </mxCell>
        <mxCell id="k9Ez34xanpNrjzAvwohH-51" value="precheckOrder: lấy thông tin từ req⇒ gọi đến thủ tục precheck_order(BPSFunkey) (service BPS)" style="rounded=0;whiteSpace=wrap;html=1;" vertex="1" parent="1">
          <mxGeometry x="410" y="110" width="240" height="60" as="geometry" />
        </mxCell>
        <mxCell id="k9Ez34xanpNrjzAvwohH-52" value="" style="endArrow=open;endFill=1;endSize=12;html=1;rounded=0;exitX=1;exitY=0.5;exitDx=0;exitDy=0;" edge="1" parent="1">
          <mxGeometry width="160" relative="1" as="geometry">
            <mxPoint x="650" y="119.5" as="sourcePoint" />
            <mxPoint x="900" y="120" as="targetPoint" />
            <Array as="points">
              <mxPoint x="720" y="119.5" />
            </Array>
          </mxGeometry>
        </mxCell>
        <mxCell id="k9Ez34xanpNrjzAvwohH-53" value="" style="endArrow=open;endFill=1;endSize=12;html=1;rounded=0;" edge="1" parent="1">
          <mxGeometry width="160" relative="1" as="geometry">
            <mxPoint x="900" y="149" as="sourcePoint" />
            <mxPoint x="650" y="149" as="targetPoint" />
            <Array as="points">
              <mxPoint x="860" y="149" />
            </Array>
          </mxGeometry>
        </mxCell>
        <mxCell id="k9Ez34xanpNrjzAvwohH-55" value="Save" style="rounded=0;whiteSpace=wrap;html=1;" vertex="1" parent="1">
          <mxGeometry x="730" y="230" width="120" height="60" as="geometry" />
        </mxCell>
        <mxCell id="k9Ez34xanpNrjzAvwohH-56" value="" style="endArrow=open;endFill=1;endSize=12;html=1;rounded=0;exitX=1;exitY=0.5;exitDx=0;exitDy=0;" edge="1" parent="1">
          <mxGeometry width="160" relative="1" as="geometry">
            <mxPoint x="660" y="250" as="sourcePoint" />
            <mxPoint x="730" y="250" as="targetPoint" />
            <Array as="points">
              <mxPoint x="730" y="250" />
            </Array>
          </mxGeometry>
        </mxCell>
        <mxCell id="k9Ez34xanpNrjzAvwohH-58" value="" style="endArrow=open;endFill=1;endSize=12;html=1;rounded=0;" edge="1" parent="1">
          <mxGeometry width="160" relative="1" as="geometry">
            <mxPoint x="730" y="280" as="sourcePoint" />
            <mxPoint x="660" y="280" as="targetPoint" />
            <Array as="points">
              <mxPoint x="730" y="280" />
            </Array>
          </mxGeometry>
        </mxCell>
        <mxCell id="k9Ez34xanpNrjzAvwohH-61" value="SSO" style="text;html=1;align=center;verticalAlign=middle;resizable=0;points=[];autosize=1;strokeColor=none;fillColor=none;" vertex="1" parent="1">
          <mxGeometry x="46" y="25" width="50" height="30" as="geometry" />
        </mxCell>
        <mxCell id="k9Ez34xanpNrjzAvwohH-62" value="Client login" style="whiteSpace=wrap;html=1;" vertex="1" parent="1">
          <mxGeometry x="-214" y="87" width="115" height="54" as="geometry" />
        </mxCell>
        <mxCell id="k9Ez34xanpNrjzAvwohH-63" value="login" style="rounded=0;whiteSpace=wrap;html=1;" vertex="1" parent="1">
          <mxGeometry x="11" y="77" width="115" height="74" as="geometry" />
        </mxCell>
        <mxCell id="k9Ez34xanpNrjzAvwohH-64" value="" style="endArrow=open;endFill=1;endSize=12;html=1;rounded=0;exitX=1;exitY=0.5;exitDx=0;exitDy=0;" edge="1" parent="1">
          <mxGeometry width="160" relative="1" as="geometry">
            <mxPoint x="-79" y="97" as="sourcePoint" />
            <mxPoint x="-9" y="97" as="targetPoint" />
            <Array as="points">
              <mxPoint x="-9" y="97" />
            </Array>
          </mxGeometry>
        </mxCell>
        <mxCell id="k9Ez34xanpNrjzAvwohH-65" value="" style="endArrow=open;endFill=1;endSize=12;html=1;rounded=0;" edge="1" parent="1">
          <mxGeometry width="160" relative="1" as="geometry">
            <mxPoint x="-10" y="139.5" as="sourcePoint" />
            <mxPoint x="-80" y="139.5" as="targetPoint" />
            <Array as="points">
              <mxPoint x="-10" y="139.5" />
            </Array>
          </mxGeometry>
        </mxCell>
        <mxCell id="k9Ez34xanpNrjzAvwohH-66" value="trả về token, data user để gắn vào req" style="text;html=1;align=center;verticalAlign=middle;resizable=0;points=[];autosize=1;strokeColor=none;fillColor=none;" vertex="1" parent="1">
          <mxGeometry x="-160" y="148" width="230" height="30" as="geometry" />
        </mxCell>
        <mxCell id="k9Ez34xanpNrjzAvwohH-67" value="" style="endArrow=open;endFill=1;endSize=12;html=1;rounded=0;exitX=0.383;exitY=1.05;exitDx=0;exitDy=0;exitPerimeter=0;" edge="1" parent="1" source="k9Ez34xanpNrjzAvwohH-62">
          <mxGeometry width="160" relative="1" as="geometry">
            <mxPoint x="-239" y="266.5" as="sourcePoint" />
            <mxPoint x="-169" y="266.5" as="targetPoint" />
            <Array as="points">
              <mxPoint x="-169" y="266.5" />
            </Array>
          </mxGeometry>
        </mxCell>
        <mxCell id="k9Ez34xanpNrjzAvwohH-69" value="" style="endArrow=open;endFill=1;endSize=12;html=1;rounded=0;" edge="1" parent="1">
          <mxGeometry width="160" relative="1" as="geometry">
            <mxPoint x="-94" y="277" as="sourcePoint" />
            <mxPoint x="176" y="277" as="targetPoint" />
            <Array as="points">
              <mxPoint x="176" y="277" />
            </Array>
          </mxGeometry>
        </mxCell>
        <mxCell id="k9Ez34xanpNrjzAvwohH-70" value="Lấy header của req để auth .ok=&amp;gt; next()" style="rounded=0;whiteSpace=wrap;html=1;" vertex="1" parent="1">
          <mxGeometry x="190" y="180" width="120" height="60" as="geometry" />
        </mxCell>
        <mxCell id="k9Ez34xanpNrjzAvwohH-71" value="" style="endArrow=open;endFill=1;endSize=12;html=1;rounded=0;exitX=1;exitY=0.5;exitDx=0;exitDy=0;" edge="1" parent="1">
          <mxGeometry width="160" relative="1" as="geometry">
            <mxPoint x="320" y="200" as="sourcePoint" />
            <mxPoint x="390" y="200" as="targetPoint" />
            <Array as="points">
              <mxPoint x="390" y="200" />
            </Array>
          </mxGeometry>
        </mxCell>
        <mxCell id="k9Ez34xanpNrjzAvwohH-72" value="Y" style="text;html=1;align=center;verticalAlign=middle;resizable=0;points=[];autosize=1;strokeColor=none;fillColor=none;" vertex="1" parent="1">
          <mxGeometry x="335" y="178" width="30" height="30" as="geometry" />
        </mxCell>
      </root>
    </mxGraphModel>
  </diagram>
</mxfile>
